<mxfile host="app.diagrams.net" modified="2023-03-04T19:40:01.135Z" agent="5.0 (Windows NT 10.0; Win64; x64) AppleWebKit/537.36 (KHTML, like Gecko) Chrome/110.0.0.0 Safari/537.36" etag="B-Tb17-68NsaMp8FXkuC" version="21.0.2" type="github">
  <diagram name="Page-1" id="k_SiI53cw8dHMDRRNK4y">
    <mxGraphModel dx="1434" dy="796" grid="1" gridSize="10" guides="1" tooltips="1" connect="1" arrows="1" fold="1" page="1" pageScale="1" pageWidth="850" pageHeight="1100" math="0" shadow="0">
      <root>
        <mxCell id="0" />
        <mxCell id="1" parent="0" />
        <mxCell id="VpZcy6k8F7PegZOrMiy7-3" value="" style="edgeStyle=orthogonalEdgeStyle;rounded=0;orthogonalLoop=1;jettySize=auto;html=1;" edge="1" parent="1" source="VpZcy6k8F7PegZOrMiy7-1" target="VpZcy6k8F7PegZOrMiy7-2">
          <mxGeometry relative="1" as="geometry" />
        </mxCell>
        <mxCell id="VpZcy6k8F7PegZOrMiy7-1" value="START" style="ellipse;whiteSpace=wrap;html=1;" vertex="1" parent="1">
          <mxGeometry x="340" y="20" width="120" height="80" as="geometry" />
        </mxCell>
        <mxCell id="VpZcy6k8F7PegZOrMiy7-5" value="" style="edgeStyle=orthogonalEdgeStyle;rounded=0;orthogonalLoop=1;jettySize=auto;html=1;" edge="1" parent="1" source="VpZcy6k8F7PegZOrMiy7-2" target="VpZcy6k8F7PegZOrMiy7-4">
          <mxGeometry relative="1" as="geometry" />
        </mxCell>
        <mxCell id="VpZcy6k8F7PegZOrMiy7-2" value="Request input 1st number" style="shape=parallelogram;perimeter=parallelogramPerimeter;whiteSpace=wrap;html=1;fixedSize=1;" vertex="1" parent="1">
          <mxGeometry x="315" y="130" width="170" height="60" as="geometry" />
        </mxCell>
        <mxCell id="VpZcy6k8F7PegZOrMiy7-7" value="" style="edgeStyle=orthogonalEdgeStyle;rounded=0;orthogonalLoop=1;jettySize=auto;html=1;" edge="1" parent="1" source="VpZcy6k8F7PegZOrMiy7-4" target="VpZcy6k8F7PegZOrMiy7-6">
          <mxGeometry relative="1" as="geometry" />
        </mxCell>
        <mxCell id="VpZcy6k8F7PegZOrMiy7-4" value="Store 1st number." style="shape=parallelogram;perimeter=parallelogramPerimeter;whiteSpace=wrap;html=1;fixedSize=1;" vertex="1" parent="1">
          <mxGeometry x="340" y="210" width="120" height="60" as="geometry" />
        </mxCell>
        <mxCell id="VpZcy6k8F7PegZOrMiy7-9" value="" style="edgeStyle=orthogonalEdgeStyle;rounded=0;orthogonalLoop=1;jettySize=auto;html=1;" edge="1" parent="1" source="VpZcy6k8F7PegZOrMiy7-6" target="VpZcy6k8F7PegZOrMiy7-8">
          <mxGeometry relative="1" as="geometry" />
        </mxCell>
        <mxCell id="VpZcy6k8F7PegZOrMiy7-6" value="Request input 2nd number" style="shape=parallelogram;perimeter=parallelogramPerimeter;whiteSpace=wrap;html=1;fixedSize=1;" vertex="1" parent="1">
          <mxGeometry x="320" y="290" width="140" height="60" as="geometry" />
        </mxCell>
        <mxCell id="VpZcy6k8F7PegZOrMiy7-11" value="" style="edgeStyle=orthogonalEdgeStyle;rounded=0;orthogonalLoop=1;jettySize=auto;html=1;" edge="1" parent="1" source="VpZcy6k8F7PegZOrMiy7-8" target="VpZcy6k8F7PegZOrMiy7-10">
          <mxGeometry relative="1" as="geometry" />
        </mxCell>
        <mxCell id="VpZcy6k8F7PegZOrMiy7-8" value="Store 2nd number" style="shape=parallelogram;perimeter=parallelogramPerimeter;whiteSpace=wrap;html=1;fixedSize=1;" vertex="1" parent="1">
          <mxGeometry x="320" y="370" width="130" height="60" as="geometry" />
        </mxCell>
        <mxCell id="VpZcy6k8F7PegZOrMiy7-13" value="" style="edgeStyle=orthogonalEdgeStyle;rounded=0;orthogonalLoop=1;jettySize=auto;html=1;" edge="1" parent="1" source="VpZcy6k8F7PegZOrMiy7-10" target="VpZcy6k8F7PegZOrMiy7-12">
          <mxGeometry relative="1" as="geometry" />
        </mxCell>
        <mxCell id="VpZcy6k8F7PegZOrMiy7-10" value="XOR swap values" style="whiteSpace=wrap;html=1;" vertex="1" parent="1">
          <mxGeometry x="325" y="460" width="120" height="60" as="geometry" />
        </mxCell>
        <mxCell id="VpZcy6k8F7PegZOrMiy7-15" value="" style="edgeStyle=orthogonalEdgeStyle;rounded=0;orthogonalLoop=1;jettySize=auto;html=1;" edge="1" parent="1" source="VpZcy6k8F7PegZOrMiy7-12" target="VpZcy6k8F7PegZOrMiy7-14">
          <mxGeometry relative="1" as="geometry" />
        </mxCell>
        <mxCell id="VpZcy6k8F7PegZOrMiy7-12" value="Print swapped numbers" style="shape=parallelogram;perimeter=parallelogramPerimeter;whiteSpace=wrap;html=1;fixedSize=1;" vertex="1" parent="1">
          <mxGeometry x="325" y="540" width="120" height="60" as="geometry" />
        </mxCell>
        <mxCell id="VpZcy6k8F7PegZOrMiy7-14" value="END" style="ellipse;whiteSpace=wrap;html=1;" vertex="1" parent="1">
          <mxGeometry x="320" y="620" width="140" height="80" as="geometry" />
        </mxCell>
      </root>
    </mxGraphModel>
  </diagram>
</mxfile>
